<svg width="20" height="20" viewBox="0 0 20 20" fill="none" xmlns="http://www.w3.org/2000/svg">
<path d="M15.831 16.6668C8.72184 16.6768 3.326 11.2168 3.3335 4.16933C3.3335 3.7085 3.70684 3.3335 4.16684 3.3335H6.36684C6.77934 3.3335 7.13017 3.63683 7.191 4.04516C7.33609 5.02437 7.62094 5.9777 8.03684 6.876L8.12267 7.061C8.18033 7.18549 8.19273 7.3262 8.15774 7.45886C8.12275 7.59152 8.04256 7.7078 7.931 7.78766C7.24934 8.27433 6.98934 9.2535 7.52017 10.0168C8.18849 10.9779 9.02262 11.8124 9.9835 12.481C10.7477 13.011 11.7268 12.751 12.2127 12.0702C12.2924 11.9583 12.4088 11.8778 12.5417 11.8426C12.6745 11.8075 12.8155 11.8199 12.9402 11.8777L13.1243 11.9627C14.0227 12.3793 14.976 12.6643 15.9552 12.8093C16.3635 12.8702 16.6668 13.221 16.6668 13.6343V15.8335C16.6668 15.943 16.6453 16.0514 16.6033 16.1526C16.5614 16.2538 16.4999 16.3457 16.4225 16.423C16.345 16.5004 16.253 16.5618 16.1518 16.6036C16.0506 16.6455 15.9422 16.6669 15.8327 16.6668H15.831Z" fill="#B59571"/>
</svg>
